<?xml version="1.0" encoding="UTF-8"?>
<svg id="Art" xmlns="http://www.w3.org/2000/svg" viewBox="0 0 220 219.7837">
  <circle cx="110" cy="110" r="110" style="fill: blue;"/>
  <rect x="65.9984" y="146" width="24" height="8" rx="4" ry="4" style="fill: #fff;"/>
  <path d="M81.6379,50c0-8.8366,7.1634-16,16-16h24c8.8366,0,16,7.1634,16,16h-8c0-4.4111-3.5889-8-8-8h-24c-4.4111,0-8,3.5889-8,8h-8Z" style="fill: #fff;"/>
  <path d="M169.9984,91v-17c0-8.8365-7.1635-16-16-16H65.9984c-8.8365,0-16,7.1635-16,16v17c0,8.2842-6.7157,15-15,15v8c8.2843,0,15,6.7157,15,15v25c0,8.8365,7.1635,16,16,16h88c8.8365,0,16-7.1635,16-16v-25c0-8.2843,6.7157-15,15-15v-8c-8.2843,0-15-6.7158-15-15Zm2.1405,19.072c-.0341-.023-.066-.0488-.0999-.072-6.0607,4.1419-10.0406,11.1051-10.0406,19v25c0,4.4111-3.5889,8-8,8H65.9984c-4.4111,0-8-3.5889-8-8v-25c0-7.8949-3.9799-14.8581-10.0406-19-.0339,.0232-.0659,.049-.0999,.072v-.1439c.0341,.023,.066,.0488,.0999,.072,6.0607-4.142,10.0406-11.1051,10.0406-19v-17c0-4.4111,3.5889-8,8-8h88c4.4111,0,8,3.5889,8,8v17c0,7.8949,3.9799,14.858,10.0406,19,.0339-.0232,.0659-.049,.0999-.072v.1439Z" style="fill: #fff;"/>
  <rect x="77.9984" y="110" width="16" height="8" transform="translate(-28.0016 199.9984) rotate(-90)" style="fill: #fff;"/>
  <rect x="125.9984" y="110" width="16" height="8" transform="translate(19.9984 247.9984) rotate(-90)" style="fill: #fff;"/>
  <rect x="97.9984" y="106" width="24" height="8" style="fill: #fff;"/>
  <path d="M145.9984,114h11.8839c.772-1.3947,1.6426-2.7358,2.6237-4-.9811-1.2642-1.8517-2.6053-2.6237-4h-12.0025l.1186,8Z" style="fill: #fff;"/>
  <path d="M73.9984,106h-11.8838c-.772,1.3947-1.6427,2.7358-2.6238,4,.9811,1.2642,1.8518,2.6053,2.6238,4h11.8838v-8Z" style="fill: #fff;"/>
</svg>